<?xml version="1.0" encoding="utf-8"?>
<!-- Generator: Adobe Illustrator 23.0.1, SVG Export Plug-In . SVG Version: 6.00 Build 0)  -->
<svg version="1.1" id="Camada_1" xmlns="http://www.w3.org/2000/svg" xmlns:xlink="http://www.w3.org/1999/xlink" x="0px" y="0px"
	 viewBox="0 0 1728 1296" style="enable-background:new 0 0 1728 1296;" xml:space="preserve">
<style type="text/css">
	.st0{fill:#FF0000;stroke:#FFFFFF;stroke-width:2;stroke-miterlimit:10;}
</style>
<g>
	<path class="st0" d="M1119.39,647.33l35.99-163.41l-129.78-1.55l-14.42,15.25c-1.55-1.13-3.1-2.25-4.65-3.38
		c-0.07-0.47-0.13-0.94-0.2-1.41c-0.51,0.57-35.32-11.1-50.89-15.56c-20.22-5.78-49.51-11.24-88.56-9.31
		c-32.98,4.35-59.24,12.83-77.53,20.1c-14.02,5.57-33.22,13.54-55.67,29.13c-12.26,8.51-27.67,21.02-42.71,38.68
		c-13.04,15.31-22.13,30.17-28.4,42.3c-4.37,18.55-8.23,40.48-10.18,65.25c-2,25.46-1.52,48.3,0,67.71
		c1.04,7.92,3.08,17.86,7.2,28.81c4.89,13.02,10.73,22.19,13.19,25.87c3.54,5.3,7.48,9.88,15.21,18.83
		c4.23,4.9,13.17,15.24,18.6,20.76c22.18,22.51,52.83,32.36,57.72,33.88c24.61,7.64,45.95,7.14,58.83,5.81l91.48,1.09
		c10.63-1.02,23.78-3.3,38.25-8.23c9.06-3.09,16.97-6.66,23.68-10.18c5.6-40.43,11.2-80.85,16.81-121.28l-94.84-1.13
		c-0.1,0-0.2-0.01-0.3-0.02l-12.52,68.15c-10.58-0.24-22.21-0.99-34.68-2.55c-13.79-1.72-26.36-4.14-37.55-6.83
		c-6.59-1.38-19.35-4.99-31.73-15.27c-15.16-12.59-20.96-27.87-23-34.32c-2.01-13.21-3.47-28.8-3.36-46.3
		c0.12-18.86,2.04-35.53,4.5-49.44c8.09-23.57,20.69-37.41,28.19-44.35c11.32-10.47,22.96-16.26,36.46-22.97
		c12.74-6.33,22.85-9.87,34.85-14.01c11.03-3.81,25.99-8.48,44.19-12.7c13.92,2.82,27.85,5.65,41.77,8.47l-0.01,0.02
		c0.02,0,0.04,0.01,0.06,0.02c0.06,0.01,0.12,0.03,0.18,0.05c0.17,0.02,0.32,0.06,0.46,0.12c0.13,0.03,0.24,0.08,0.34,0.14
		c0.03,0.01,0.06,0.02,0.09,0.03c0.02,0,0.04,0.01,0.06,0.01c0.02,0.01,0.03,0.01,0.04,0.02c0.07,0.02,0.13,0.05,0.19,0.08
		c0.02,0.01,0.04,0.02,0.06,0.03c0.01,0,0.03,0.01,0.04,0.01c0.07,0.01,0.13,0.02,0.2,0.04c0.29,0.09,0.58,0.19,0.87,0.28l0,0
		c4.86,1.57,9.71,3.17,14.57,4.75c8.88,2.9,17.76,5.8,26.64,8.71c3.07,1.01,6.15,2.01,9.22,3.02c1.58,0.52,3.17,1.04,4.75,1.56
		c0,0,0,0,0-0.01c3.55,1.16,7.11,2.32,10.66,3.48c0.02-0.02,0.03-0.05,0.05-0.07l-0.01,0c7.57-9.01,15.14-18.03,22.7-27.04
		c-16.47,102.65-32.95,205.3-49.42,307.94l91.48,1.09l29.31-137.96l46.83-1.57l17.86-70L1119.39,647.33z"/>
	<path class="st0" d="M1008.13,582.74c0.01-0.02,0.02-0.04,0.03-0.05c-1.87-0.61-3.75-1.22-5.62-1.84
		c-3.88-1.27-7.76-2.54-11.64-3.81c-31.57-10.37-46.02-15.09-46.45-15.17c-0.02,0-0.18-0.03-0.41-0.09c-0.01,0-0.02,0-0.04-0.01
		c-0.52-0.14-1.17-0.3-1.76-0.54c-15.31,19.3-30.63,38.6-45.94,57.9l76.54,5.17c11.66-13.89,23.32-27.77,34.98-41.66L1008.13,582.74
		z"/>
	<path class="st0" d="M852.08,714.36c48.34,0.58,96.68,1.15,145.02,1.73c2.95-23.37,5.89-46.74,8.84-70.11
		c-49.67-0.59-99.35-1.19-149.02-1.78C855.31,667.59,853.7,690.97,852.08,714.36z"/>
</g>
</svg>
